<?xml version="1.0" encoding="UTF-8" standalone="no"?>
<!DOCTYPE svg PUBLIC "-//W3C//DTD SVG 1.1//EN" "http://www.w3.org/Graphics/SVG/1.1/DTD/svg11.dtd">
<svg version="1.1" xmlns="http://www.w3.org/2000/svg" xmlns:xlink="http://www.w3.org/1999/xlink" preserveAspectRatio="xMidYMid meet" viewBox="0 0 640 640" width="640" height="640"><defs><path d="M20 320L448.41 432.55L448.41 320L481.36 320L481.36 320L526.3 320L481.36 255.07L481.36 198.8L565.25 320L565.25 320L481.36 441.2L481.36 384.93L526.3 320L481.36 320L481.36 384.93L481.36 384.93L481.36 441.2L20 320L448.41 320L448.41 320L481.36 320L481.36 255.07L448.41 207.45L188.22 275.81L20 320L20 320L188.22 275.81L481.36 198.8L481.36 255.07L481.36 255.07L481.36 320L448.41 320L448.41 320L20 320ZM448.41 432.55L481.36 384.93L481.36 320L448.41 320L448.41 432.55Z" id="c1Su7CbrDM"></path><path d="M408.76 320L479.45 320L408.76 425.81L408.76 320ZM20 320L408.76 214.19L408.76 425.81L20 320ZM408.76 320L408.76 214.19L479.45 320L408.76 320Z" id="e2cft8H0K2"></path><path d="M541.52 259.71L541.52 207.45L620 320L541.52 320L541.52 432.55L109.85 320L510.68 320L510.68 320L109.85 320L356.38 255.72L541.52 207.45L541.52 320L583.56 320L541.52 259.71ZM541.52 380.29L583.56 320L620 320L541.52 432.55L541.52 380.29ZM510.68 424.51L541.52 380.29L541.52 320L510.68 320L510.68 424.51ZM109.85 320L510.68 424.51L510.68 320L541.52 320L541.52 259.71L510.68 215.49L510.68 215.49L356.38 255.72L109.85 320L510.68 320L510.68 320L109.85 320ZM541.52 320L583.56 320L583.56 320L541.52 320L541.52 320Z" id="efioZ8pUP"></path></defs><g visibility="inherit"><g visibility="inherit"><g visibility="inherit"><use xlink:href="#c1Su7CbrDM" opacity="1" fill="#0e86f7" fill-opacity="1"></use></g><g visibility="inherit"><use xlink:href="#e2cft8H0K2" opacity="1" fill="#0e86f7" fill-opacity="1"></use></g><g visibility="inherit"><use xlink:href="#efioZ8pUP" opacity="1" fill="#0e86f7" fill-opacity="1"></use></g></g></g></svg>